<svg width="114" height="117" viewBox="0 0 114 117" fill="none" xmlns="http://www.w3.org/2000/svg">
<path d="M0.421378 47.3427C-0.154127 50.2377 0.234684 52.7456 1.58782 54.8666C3.00044 57.0765 4.69433 58.6478 6.66948 59.5806C8.7041 60.6024 10.9833 61.3642 13.5072 61.8659L42.791 67.6873L36.5711 98.9754C35.73 103.207 35.9643 106.88 37.2741 109.995C38.6433 113.2 41.3322 115.2 45.3406 115.997C49.5717 116.838 52.8732 115.951 55.245 113.336C57.602 110.795 59.1716 107.558 59.9537 103.624L66.1736 72.3357L95.4574 78.1571C99.837 79.0278 103.703 78.7932 107.056 77.4535C110.394 76.188 112.447 73.6253 113.214 69.7653C113.79 66.8703 113.371 64.3178 111.959 62.1079C110.531 59.9722 108.793 58.4306 106.744 57.4831C104.768 56.5503 102.519 55.833 99.9951 55.3313L70.7112 49.5098L76.909 18.3331C77.7796 13.9535 77.4858 10.1912 76.0276 7.0463C74.6436 3.91611 72.0216 1.96734 68.1616 1.2C60.3674 -0.349437 55.489 3.81216 53.5264 13.6848L47.3287 44.8615L18.0448 39.0401C13.3683 38.1104 9.4352 38.2931 6.24554 39.5881C3.11535 40.9721 1.17396 43.5569 0.421378 47.3427Z" fill="url(#paint0_linear_1316_571)"/>
<defs>
<linearGradient id="paint0_linear_1316_571" x1="101.793" y1="127.22" x2="-6.98918" y2="7.02354" gradientUnits="userSpaceOnUse">
<stop stop-color="#FDE047"/>
<stop offset="1" stop-color="#99CF5C"/>
</linearGradient>
</defs>
</svg>
