<svg width="143" height="148" viewBox="0 0 143 148" fill="none" xmlns="http://www.w3.org/2000/svg">
<ellipse cx="71.5262" cy="72.3158" rx="71.2313" ry="72.3158" fill="#874FFB" fill-opacity="0.25"/>
<path d="M128.396 70.7588V22.2285L100.012 43.3185C91.6905 39.7064 81.8871 37.6091 70.8298 37.6091C59.4875 37.6091 49.6841 39.5899 41.4196 43.1437L13.3203 22.2285V70.118V90.5671C13.3203 119.93 36.6319 143.758 65.3582 143.758H76.3585C105.085 143.758 128.396 119.93 128.396 90.5671V70.7588Z" fill="#DCCBFF"/>
<path d="M76.3585 147.018H65.3582C34.9221 147.018 10.1855 121.733 10.1855 90.6215V22.2818C10.1855 21.0583 10.8695 19.9513 11.8954 19.427C12.9214 18.9026 14.1753 18.9609 15.1443 19.7183L41.8756 39.6434C50.4821 36.2643 60.2285 34.5748 70.8868 34.5748C81.3742 34.5748 91.0066 36.3226 99.6701 39.8182L126.629 19.7765C127.598 19.0774 128.852 18.9609 129.878 19.4852C130.904 20.0096 131.588 21.1165 131.588 22.34V90.6798C131.531 121.733 106.795 147.018 76.3585 147.018ZM16.4552 28.5739V90.6215C16.4552 118.179 38.3988 140.667 65.4152 140.667H76.4155C103.375 140.667 125.376 118.237 125.376 90.6215V28.5739L102.007 45.9939C101.095 46.6347 99.9551 46.8095 98.9291 46.3434C90.6646 42.7313 81.2602 40.9252 70.9439 40.9252C60.4565 40.9252 50.9381 42.673 42.7306 46.1686C41.7046 46.5765 40.5647 46.4599 39.7098 45.8191L16.4552 28.5739Z" fill="#9C7CF8"/>
<path d="M47.2325 90.0382C50.0026 90.0382 52.2482 87.7419 52.2482 84.9092C52.2482 82.0766 50.0026 79.7803 47.2325 79.7803C44.4624 79.7803 42.2168 82.0766 42.2168 84.9092C42.2168 87.7419 44.4624 90.0382 47.2325 90.0382Z" fill="#9C7CF8"/>
<path d="M94.4825 90.0382C97.2526 90.0382 99.4982 87.7419 99.4982 84.9092C99.4982 82.0766 97.2526 79.7803 94.4825 79.7803C91.7124 79.7803 89.4668 82.0766 89.4668 84.9092C89.4668 87.7419 91.7124 90.0382 94.4825 90.0382Z" fill="#9C7CF8"/>
<path d="M70.829 99.4188C70.829 99.4188 62.3365 98.8364 61.7665 104.137C61.1966 109.437 70.829 114.096 70.829 114.096C70.829 114.096 80.4614 109.379 79.8915 104.137C79.3215 98.8364 70.829 99.4188 70.829 99.4188Z" fill="#9C7CF8"/>
<path d="M70.8303 126.161C69.5764 126.161 68.6074 125.112 68.6074 123.889V109.438C68.6074 108.156 69.6334 107.165 70.8303 107.165C72.0842 107.165 73.0532 108.214 73.0532 109.438V123.889C73.1102 125.112 72.0842 126.161 70.8303 126.161Z" fill="#9C7CF8"/>
<path d="M70.8303 126.161C66.4986 126.161 62.1669 124.296 57.9491 120.623C57.0372 119.807 56.9232 118.35 57.7211 117.418C58.5191 116.485 59.944 116.368 60.8559 117.184C67.6385 123.13 73.9651 123.13 80.7477 117.184C81.6597 116.368 83.0846 116.485 83.8825 117.418C84.6805 118.35 84.5665 119.807 83.6545 120.623C79.4938 124.296 75.162 126.161 70.8303 126.161Z" fill="#9C7CF8"/>
<path d="M35.8342 102.86H23.01C21.756 102.86 20.7871 101.824 20.7871 100.615C20.7871 99.4063 21.813 98.3701 23.01 98.3701H35.8342C37.0881 98.3701 38.057 99.4063 38.057 100.615C38.057 101.824 37.0881 102.86 35.8342 102.86Z" fill="#9C7CF8"/>
<path d="M27.2849 113.749C26.202 113.749 25.233 112.934 25.0621 111.826C24.8911 110.603 25.689 109.437 26.9429 109.204L35.4924 107.806C36.6893 107.631 37.8293 108.447 38.0573 109.729C38.2282 110.952 37.4303 112.118 36.1764 112.351L27.6269 113.749C27.5129 113.749 27.3989 113.749 27.2849 113.749Z" fill="#9C7CF8"/>
<path d="M29.4502 125.347C28.5953 125.347 27.7973 124.822 27.3983 124.006C26.8854 122.84 27.3983 121.499 28.5383 120.974L39.8236 115.785C40.9635 115.26 42.2744 115.785 42.7874 116.951C43.3004 118.117 42.7874 119.458 41.6475 119.983L30.3621 125.172C30.0772 125.288 29.7352 125.347 29.4502 125.347Z" fill="#9C7CF8"/>
<path d="M118.707 102.86H105.883C104.629 102.86 103.66 101.824 103.66 100.615C103.66 99.4063 104.686 98.3701 105.883 98.3701H118.707C119.961 98.3701 120.93 99.4063 120.93 100.615C120.93 101.824 119.904 102.86 118.707 102.86Z" fill="#9C7CF8"/>
<path d="M114.433 113.749C114.319 113.749 114.205 113.749 114.091 113.749L105.541 112.351C104.344 112.176 103.489 111.011 103.66 109.729C103.831 108.505 104.971 107.631 106.225 107.806L114.775 109.204C115.972 109.379 116.827 110.545 116.656 111.827C116.428 112.992 115.516 113.749 114.433 113.749Z" fill="#9C7CF8"/>
<path d="M112.269 125.347C111.984 125.347 111.642 125.288 111.357 125.172L100.071 119.983C98.9315 119.458 98.4186 118.117 98.9315 116.951C99.4445 115.785 100.755 115.26 101.895 115.785L113.181 120.974C114.321 121.499 114.834 122.84 114.321 124.006C113.922 124.88 113.124 125.347 112.269 125.347Z" fill="#9C7CF8"/>
<path d="M21.3556 66.8067C20.7287 66.8067 20.1017 66.5154 19.6457 65.991C18.8478 65.0588 18.9617 63.6023 19.8737 62.7866C22.7805 60.2813 26.9413 55.6204 27.1693 53.2316C27.1123 50.6681 18.9618 36.6852 11.4382 25.3242C10.7543 24.2754 11.0392 22.8771 12.0082 22.178C13.0341 21.4789 14.402 21.7702 15.086 22.7606C20.1587 30.4512 32.014 48.9202 31.615 53.6395C31.159 58.7665 24.1484 65.0588 22.7805 66.2823C22.3816 66.6319 21.8686 66.8067 21.3556 66.8067Z" fill="#9C7CF8"/>
<path d="M120.359 66.8062C119.846 66.8062 119.333 66.6314 118.934 66.2818C117.509 65.0583 110.556 58.7659 110.1 53.6387C109.701 48.9194 121.499 30.45 126.629 22.7593C127.313 21.7105 128.738 21.4192 129.707 22.1184C130.732 22.8175 131.017 24.2159 130.333 25.2646C122.81 36.6842 114.602 50.609 114.602 53.2309C114.83 55.6197 118.991 60.2225 121.898 62.7278C122.81 63.5435 122.981 65 122.183 65.9322C121.613 66.5149 120.986 66.8062 120.359 66.8062Z" fill="#9C7CF8"/>
</svg>
