<svg width="157" height="151" viewBox="0 0 157 151" fill="none" xmlns="http://www.w3.org/2000/svg">
<path d="M136.577 39.8616C133.237 31.9828 122.405 29.0282 112.468 33.2851C103.708 37.0379 98.538 44.8872 99.6071 52.1464L46.7829 74.7752C42.3143 68.9723 33.1012 67.2842 24.3408 71.037C14.4036 75.2939 9.02173 85.194 12.3619 93.0727C13.8122 96.4938 16.6129 99.0913 20.4135 100.403C18.7664 104.171 18.6466 107.897 20.0969 111.318C23.4371 119.197 34.2686 122.152 44.2058 117.895C52.9663 114.142 58.136 106.293 57.067 99.0334L109.76 76.4606C114.229 82.2636 123.442 83.9516 132.203 80.1988C142.14 75.9419 147.522 66.0418 144.181 58.1631C142.731 54.742 139.93 52.1445 136.13 50.8327C137.908 47.0088 138.027 43.2826 136.577 39.8616ZM129.992 56.0344C133.441 56.5168 136.109 58.4363 137.252 61.1317C139.317 66.0041 136.019 72.0719 129.873 74.7044C123.859 77.281 117.308 75.6774 115.111 70.861C114.452 69.306 112.4 68.8378 110.438 69.678L51.7304 94.8273C49.7691 95.6674 48.8582 97.5276 49.3427 99.0349C51.2337 103.86 48.0219 109.768 41.8765 112.4C35.7312 115.033 29.0925 113.222 27.0269 108.35C25.8842 105.654 26.3545 102.39 28.3971 99.5555C29.0926 98.6451 29.1333 97.6477 28.7817 96.8184C28.4301 95.989 27.5555 95.3837 26.5512 95.2015C23.1022 94.719 20.4345 92.7995 19.2918 90.1041C17.2262 85.2317 20.5247 79.1639 26.6701 76.5314C32.6847 73.9548 39.2355 75.5584 41.4319 80.3748C42.0911 81.9298 44.1436 82.398 46.1049 81.5578L105.074 56.2965C107.036 55.4563 107.947 53.5962 107.462 52.0888C105.571 47.2641 108.783 41.356 114.928 38.7234C121.074 36.0909 127.712 37.9018 129.778 42.7742C130.921 45.4695 130.45 48.7334 128.408 51.5683C127.712 52.4787 127.672 53.4761 128.023 54.3054C128.113 55.2468 128.988 55.8521 129.992 56.0344Z" fill="#22C188"/>
<path d="M67.3866 51.5553C69.4611 50.6592 70.563 48.6152 69.866 46.9565L66.5666 39.1049C65.8696 37.4462 63.6523 36.8361 61.5778 37.7322C59.5033 38.6283 58.4014 40.6722 59.0984 42.331L62.3978 50.1825C63.0948 51.8413 65.3121 52.4514 67.3866 51.5553Z" fill="#22C188"/>
<path d="M80.7617 49.2107C81.394 49.1931 81.8455 49.1255 82.3868 48.8903C83.7401 48.3024 84.8203 47.0618 84.9522 45.8476L86.1001 37.1221C86.3206 35.3552 84.7807 33.9675 82.7029 33.9704C80.6707 34.082 78.7784 35.6754 78.4226 37.501L77.2747 46.2266C77.0542 47.9934 78.5941 49.3811 80.7617 49.2107Z" fill="#22C188"/>
<path d="M50.8915 59.4139C52.0235 60.208 53.4694 60.2228 54.8232 59.6346C55.3647 59.3994 55.8606 59.0553 56.1757 58.6613C57.6625 57.2439 57.7465 55.15 56.2971 53.9795L49.3231 48.7799C47.9192 47.7183 45.4801 48.0064 43.858 49.4826C42.3712 50.9 42.2872 52.9938 43.7366 54.1643L50.8915 59.4139Z" fill="#22C188"/>
<path d="M89.2888 99.6243C87.2143 100.52 86.1123 102.564 86.8094 104.223L90.1087 112.075C90.8058 113.733 93.023 114.344 95.0975 113.447C97.172 112.551 98.2739 110.507 97.5769 108.849L94.2775 100.997C93.5805 99.3383 91.3633 98.7281 89.2888 99.6243Z" fill="#22C188"/>
<path d="M75.9252 101.969C73.8925 102.08 71.9998 103.674 71.6439 105.5L70.4957 114.227C70.2752 115.994 71.8155 117.382 73.8937 117.38C74.5261 117.362 74.9777 117.294 75.5191 117.059C76.8727 116.471 77.9532 115.23 78.085 114.016L79.2332 105.288C79.6335 103.186 78.0932 101.798 75.9252 101.969Z" fill="#22C188"/>
<path d="M105.787 91.7475C104.383 90.6857 101.944 90.9739 100.321 92.4503C98.8342 93.8679 98.7502 95.962 100.2 97.1326L107.175 102.333C108.307 103.127 109.753 103.142 111.107 102.554C111.649 102.318 112.145 101.974 112.46 101.58C113.947 100.163 114.031 98.0685 112.581 96.8978L105.787 91.7475Z" fill="#22C188"/>
</svg>
