<svg width="333" height="333" viewBox="0 0 333 333" fill="none" xmlns="http://www.w3.org/2000/svg">
<path d="M212.26 144.651C231.683 159.439 253.049 128.014 249.164 109.528C260.818 76.2543 221.972 63.3144 208.376 94.7399C190.895 107.68 188.953 144.651 212.26 144.651ZM214.203 139.105C192.837 140.954 200.606 107.68 212.26 98.437V96.5884C223.914 68.8601 253.049 79.9514 241.395 107.68V109.528C245.279 124.317 229.741 153.894 212.26 139.105H214.203Z" fill="#22C188"/>
<path d="M148.167 122.469C167.59 137.257 188.955 105.832 185.07 87.3465C196.724 54.0725 157.878 41.1326 144.282 74.4066C126.801 87.3465 124.859 124.318 148.167 124.318V122.469ZM150.109 116.923C128.744 118.772 136.513 85.4979 148.167 76.2551V74.4066C159.82 46.6782 188.955 57.7696 177.301 85.4979V87.3465C181.186 102.135 165.647 131.712 148.167 116.923H150.109Z" fill="#22C188"/>
<path d="M245.279 207.502C262.76 218.593 284.125 201.956 276.356 183.471C284.125 159.439 247.222 146.5 235.568 170.531C218.087 179.774 223.914 205.653 243.337 207.502H245.279ZM247.222 201.956H245.279C229.741 200.108 225.856 179.774 239.453 174.228L241.395 172.379C249.164 153.894 278.299 164.985 270.529 183.471V185.319C276.356 198.259 260.818 213.048 247.222 203.805V201.956Z" fill="#22C188"/>
<path d="M82.1281 152.046C99.6088 163.138 120.974 146.501 113.205 128.015C120.974 103.984 84.0704 91.044 72.4166 115.075C54.9359 124.318 60.7628 150.198 80.1858 152.046H82.1281ZM84.0704 146.501H82.1281C66.5897 144.652 62.7051 124.318 76.3012 118.772L78.2435 116.924C86.0127 98.4382 115.147 109.53 107.378 128.015V129.864C113.205 142.804 97.6665 157.592 84.0704 148.349V146.501Z" fill="#22C188"/>
<path d="M214.204 201.956C233.627 144.651 132.628 109.528 109.32 164.985C49.1086 196.411 89.8969 235.23 134.57 251.867C179.243 266.656 239.454 262.959 214.204 201.956ZM208.377 201.956V203.805C231.685 259.261 177.3 262.959 136.512 248.17C95.7238 233.382 54.9355 200.108 111.262 170.531L113.205 168.682C134.57 116.923 225.858 150.197 208.377 201.956Z" fill="#22C188"/>
<circle cx="166.5" cy="166.5" r="164.5" stroke="#22C188" stroke-width="4" stroke-linecap="round" stroke-linejoin="round" stroke-dasharray="1 12"/>
</svg>
