<svg width="152" height="144" viewBox="0 0 152 144" fill="none" xmlns="http://www.w3.org/2000/svg">
<path d="M46.259 63.0875C32.591 73.4941 17.5561 51.38 20.2897 38.3717C12.0889 14.9567 39.425 5.85085 48.9926 27.965C61.2939 37.0708 62.6607 63.0875 46.259 63.0875ZM44.8922 59.185C59.927 60.4858 54.4598 37.0708 46.259 30.5667V29.2658C38.0582 9.75334 17.5561 17.5583 25.7569 37.0708V38.3717C23.0233 48.7783 33.9578 69.5916 46.259 59.185H44.8922Z" fill="#22C188"/>
<path d="M91.3635 47.4781C77.6954 57.8847 62.6606 35.7706 65.3942 22.7623C57.1934 -0.652719 84.5295 -9.75855 94.0971 13.6564C106.398 22.7623 107.765 48.7789 91.3635 48.7789V47.4781ZM89.9967 43.5756C105.032 44.8764 99.5643 21.4614 91.3635 14.9573V13.6564C83.1627 -5.85605 62.6606 1.94895 70.8614 21.4614V22.7623C68.1278 33.1689 79.0622 53.9822 91.3635 43.5756H89.9967Z" fill="#22C188"/>
<path d="M23.0243 107.316C10.723 115.121 -4.31181 103.414 1.15541 90.4052C-4.31181 73.4944 21.6575 64.3886 29.8583 81.2994C42.1595 87.8035 38.0591 106.015 24.3911 107.316H23.0243ZM21.6575 103.414H23.0243C33.9587 102.113 36.6923 87.8035 27.1247 83.901L25.7579 82.6002C20.2907 69.5919 -0.211395 77.3969 5.25582 90.4052V91.706C1.15541 100.812 12.0898 111.219 21.6575 104.714V103.414Z" fill="#22C188"/>
<path d="M137.835 68.2916C125.534 76.0966 110.499 64.3891 115.966 51.3808C110.499 34.47 136.468 25.3641 144.669 42.275C156.97 48.7791 152.87 66.9908 139.202 68.2916H137.835ZM136.468 64.3891H137.835C148.769 63.0883 151.503 48.7791 141.935 44.8766L140.568 43.5758C135.101 30.5675 114.599 38.3725 120.066 51.3808V52.6816C115.966 61.7875 126.9 72.1941 136.468 65.69V64.3891Z" fill="#22C188"/>
<path d="M44.8925 103.413C31.2245 63.0877 102.298 38.3719 118.7 77.3968C161.071 99.511 132.368 126.828 100.932 138.536C69.495 148.943 27.1241 146.341 44.8925 103.413ZM48.9929 103.413V104.714C32.5913 143.739 70.8618 146.341 99.5647 135.934C128.268 125.528 156.971 102.113 117.333 81.2993L115.966 79.9985C100.932 43.5752 36.6917 66.9902 48.9929 103.413Z" fill="#22C188"/>
</svg>
