<svg width="150" height="147" viewBox="0 0 150 147" fill="none" xmlns="http://www.w3.org/2000/svg">
<ellipse cx="74.9639" cy="72.3158" rx="74.6866" ry="72.3158" fill="#FB2386" fill-opacity="0.25"/>
<path d="M93.2628 40.0645H57.9895L36.9935 60.7321C35.3698 62.3219 34.418 64.4758 34.418 66.6811V143.608H116.05V66.6298C116.05 64.4759 115.155 62.3732 113.587 60.7834L93.2628 40.0645Z" fill="#DDD8E3"/>
<path d="M94.0481 32.2705H57.207V40.0646H94.0481V32.2705Z" fill="#DDD8E3"/>
<path d="M99.8123 11.3535H51.4375V32.222H99.8123V11.3535Z" fill="#DBE546"/>
<path d="M116.162 146.425H34.4739C32.7943 146.425 31.3945 145.143 31.3945 143.604V66.6843C31.3945 63.7613 32.5703 60.9922 34.7539 58.8384L55.7499 38.1725C56.3098 37.6085 57.1496 37.3008 57.9895 37.3008H93.2628C94.1586 37.3008 94.9425 37.6597 95.5583 38.2238L115.938 58.8897C118.01 60.9922 119.186 63.7613 119.186 66.633V143.604C119.186 145.143 117.842 146.425 116.162 146.425ZM37.5534 140.784H113.083V66.633C113.083 65.1459 112.467 63.7613 111.403 62.6844L91.919 42.9416H59.3332L39.289 62.6844C38.1693 63.7613 37.5534 65.1971 37.5534 66.7355V140.784Z" fill="#8462C1"/>
<path d="M94.0474 42.8861H57.2064C55.5267 42.8861 54.127 41.6041 54.127 40.0658V32.2715C54.127 30.7331 55.5267 29.4512 57.2064 29.4512H94.0474C95.727 29.4512 97.1268 30.7331 97.1268 32.2715V40.0658C97.0708 41.6554 95.727 42.8861 94.0474 42.8861ZM60.2298 37.2967H90.912V35.0918H60.2298V37.2967Z" fill="#8462C1"/>
<path d="M99.7589 35.0914H51.3841C49.7044 35.0914 48.3047 33.8093 48.3047 32.2708V11.3987C48.3047 9.8602 49.7044 8.57812 51.3841 8.57812H99.7589C101.439 8.57812 102.838 9.8602 102.838 11.3987V32.2708C102.838 33.8093 101.495 35.0914 99.7589 35.0914ZM54.5195 29.4503H96.7355V14.1679H54.5195V29.4503Z" fill="#8462C1"/>
<path d="M91.1366 95.8098H81.2825V86.835H69.9166V95.8098H60.0625V106.272H69.9166V115.247H81.2825V106.272H91.1366V95.8098Z" fill="#DBE731"/>
<path d="M81.2799 118.065H69.858C68.1783 118.065 66.7786 116.783 66.7786 115.245V109.091H60.0599C58.3802 109.091 56.9805 107.809 56.9805 106.271V95.8093C56.9805 94.2708 58.3802 92.9888 60.0599 92.9888H66.7786V86.8351C66.7786 85.2967 68.1783 84.0146 69.858 84.0146H81.2799C82.9596 84.0146 84.3593 85.2967 84.3593 86.8351V92.9888H91.078C92.7577 92.9888 94.1574 94.2708 94.1574 95.8093V106.271C94.1574 107.809 92.7577 109.091 91.078 109.091H84.3593V115.245C84.3593 116.783 83.0155 118.065 81.2799 118.065ZM72.9935 112.424H78.2564V106.271C78.2564 104.732 79.6562 103.45 81.3358 103.45H88.0546V98.6297H81.3358C79.6562 98.6297 78.2564 97.3477 78.2564 95.8093V89.6556H72.9935V95.8093C72.9935 97.3477 71.5937 98.6297 69.914 98.6297H63.1953V103.45H69.914C71.5937 103.45 72.9935 104.732 72.9935 106.271V112.424Z" fill="#8462C1"/>
</svg>
