<svg width="147" height="147" viewBox="0 0 147 147" fill="none" xmlns="http://www.w3.org/2000/svg">
<circle cx="73" cy="72" r="72" fill="#A9B235" fill-opacity="0.25"/>
<path d="M135.525 86.5608H11.1621L18.6846 54.3099C19.4732 50.9718 22.9311 48.5581 26.935 48.5581H119.752C123.756 48.5581 127.214 50.9718 128.003 54.3099L135.525 86.5608Z" fill="#DDD8E3"/>
<path d="M135.525 98.3691H11.1621L18.8666 137.455C19.5339 140.896 23.0524 143.412 27.1776 143.412H119.57C123.695 143.412 127.214 140.896 127.881 137.455L135.525 98.3691Z" fill="#DDD8E3"/>
<path d="M135.525 89.3323H11.1623C10.1916 89.3323 9.221 88.9728 8.61435 88.3052C8.0077 87.6376 7.70439 86.816 7.94705 85.9943L15.4695 53.7437C16.5614 49.1218 21.4146 45.7324 26.9958 45.7324H119.813C125.394 45.7324 130.247 49.1218 131.339 53.7437L138.862 85.9943C139.044 86.816 138.801 87.689 138.194 88.3052C137.466 88.9728 136.556 89.3323 135.525 89.3323ZM15.2268 83.7347H131.521L124.787 54.8222C124.302 52.8193 122.24 51.3814 119.813 51.3814H26.9958C24.5692 51.3814 22.5066 52.8193 22.0213 54.8222L15.2268 83.7347Z" fill="#8462C1"/>
<path d="M119.57 146.232H27.1779C21.4147 146.232 16.5615 142.74 15.5909 137.913L7.88644 98.8343C7.70444 98.0127 8.00777 97.191 8.61442 96.5748C9.22107 95.9586 10.1917 95.5991 11.1624 95.5991H135.525C136.496 95.5991 137.406 95.9586 138.073 96.5748C138.68 97.191 138.983 98.064 138.801 98.8343L131.097 137.913C130.187 142.74 125.333 146.232 119.57 146.232ZM15.1056 101.197L22.1427 136.989C22.5673 139.094 24.6299 140.584 27.1779 140.584H119.57C122.058 140.584 124.181 139.094 124.605 136.989L131.643 101.197H15.1056Z" fill="#8462C1"/>
<path d="M143.412 86.561H3.33691V98.369H143.412V86.561Z" fill="#DBE731"/>
<path d="M143.412 101.197H3.33656C1.51662 101.197 0 99.9134 0 98.3727V86.5609C0 85.0202 1.51662 83.7363 3.33656 83.7363H143.412C145.232 83.7363 146.748 85.0202 146.748 86.5609V98.3727C146.748 99.9134 145.232 101.197 143.412 101.197ZM6.67313 95.5482H140.136V89.3341H6.67313V95.5482Z" fill="#8462C1"/>
<path d="M53.3847 131.548C51.8074 131.548 50.4727 130.624 50.1087 129.289L46.2262 112.855C45.8623 111.315 47.0148 109.825 48.8348 109.517C50.6547 109.209 52.414 110.185 52.778 111.725L56.6606 128.159C57.0246 129.699 55.8719 131.189 54.052 131.497C53.8093 131.548 53.5667 131.548 53.3847 131.548Z" fill="#8462C1"/>
<path d="M73.3434 131.548C71.5234 131.548 70.0068 130.264 70.0068 128.724V112.29C70.0068 110.75 71.5234 109.466 73.3434 109.466C75.1633 109.466 76.6799 110.75 76.6799 112.29V128.724C76.6799 130.316 75.224 131.548 73.3434 131.548Z" fill="#8462C1"/>
<path d="M93.3625 131.548C93.1199 131.548 92.9379 131.548 92.6952 131.497C90.8753 131.189 89.7226 129.699 90.0866 128.159L93.9692 111.725C94.3332 110.185 96.0925 109.209 97.9124 109.517C99.7324 109.825 100.885 111.315 100.521 112.855L96.6385 129.289C96.2745 130.624 94.9398 131.548 93.3625 131.548Z" fill="#8462C1"/>
<path d="M53.3854 78.4974C53.2034 78.4974 53.0214 78.4974 52.7788 78.446C50.9588 78.1892 49.7455 76.6999 50.1095 75.1593L53.0214 61.1907C53.3248 59.6501 55.084 58.623 56.904 58.9311C58.7239 59.1879 59.9372 60.6772 59.5732 62.2178L56.6613 76.1864C56.358 77.5216 54.9627 78.4974 53.3854 78.4974Z" fill="#8462C1"/>
<path d="M73.3444 78.4962C71.5244 78.4962 70.0078 77.2125 70.0078 75.672V61.7051C70.0078 60.1646 71.5244 58.8809 73.3444 58.8809C75.1643 58.8809 76.6809 60.1646 76.6809 61.7051V75.672C76.6809 77.2638 75.225 78.4962 73.3444 78.4962Z" fill="#8462C1"/>
<path d="M93.3632 78.4972C91.7859 78.4972 90.3906 77.5213 90.0873 76.186L87.1754 62.2161C86.8721 60.6753 88.0853 59.2372 89.8446 58.929C91.6646 58.6722 93.3632 59.6994 93.7272 61.1889L96.6392 75.1588C96.9425 76.6996 95.7292 78.1376 93.9699 78.4458C93.7272 78.4972 93.5452 78.4972 93.3632 78.4972Z" fill="#8462C1"/>
<path d="M91.7256 48.5582H85.0525V40.6493H61.6966V48.5582H55.0234V37.8246C55.0234 36.2839 56.5401 35 58.36 35H88.389C90.209 35 91.7256 36.2839 91.7256 37.8246V48.5582Z" fill="#8462C1"/>
</svg>
